# xmcd
#
# Track frame offsets:
#	150
#	17679
#	35518
#	52569
#	69328
#	88298
#	103911
#	120425
#	137551
#	152386
#	167955
#	187783
#
# Disc length: 2789 seconds
# Revision: 0
# Processed by: cddbd v1.5.2PL0 Copyright (c) Steve Scherf et al.
# Submitted via: dBpowerAMP V12.0
#
DISCID=8d0ae30c
DTITLE=Various Artist - Appalachian Angel
DYEAR=2013
DGENRE=Country
TTITLE0=Holly Norman - Free
TTITLE1=Holly Norman - Buried Treasure
TTITLE2=Holly Norman - Rearranged
TTITLE3=Holly Norman - Back To Love
TTITLE4=Holly Norman - Lyin' Eyes
TTITLE5=Holly Norman - Blackberry Cobbler
TTITLE6=Holly Norman - Music In The Mountains
TTITLE7=Holly Norman - Where've You Been
TTITLE8=Holly Norman and Rhonda Vincent - Death In The Family
TTITLE9=Holly Norman - Sweet Memories
TTITLE10=Holly Norman - Butterfly
TTITLE11=Holly Norman - Lindy
EXTD=
EXTT0=
EXTT1=
EXTT2=
EXTT3=
EXTT4=
EXTT5=
EXTT6=
EXTT7=
EXTT8=
EXTT9=
EXTT10=
EXTT11=
PLAYORDER=
